# xmcd
#
# Track frame offsets: 
#        150
#        36011
#        60371
#        89116
#        140649
#        186020
#        209308
#        230754
#        258009
#        276961
#
# Disc length: 4001 seconds
#
# Revision: 0
# Processed by: cddbd v1.5.2PL0 Copyright (c) Steve Scherf et al.
# Submitted via: ExactAudioCopy v1.0b3
#
DISCID=900f9f0a
DTITLE=Eric Clapton - Here's To The Next 150! [CD 1)
DYEAR=2011
DGENRE=Blues
TTITLE0=Going Down Slow
TTITLE1=Anything For Your Love
TTITLE2=Key To The Highway
TTITLE3=Old Love
TTITLE4=I Shot The Sheriff
TTITLE5=Layla
TTITLE6=Lay Down Sally
TTITLE7=Not Dark Yet
TTITLE8=Anytime For You
TTITLE9=Somewhere Over The Rainbow
EXTD=
EXTT0=
EXTT1=
EXTT2=
EXTT3=
EXTT4=
EXTT5=
EXTT6=
EXTT7=
EXTT8=
EXTT9=
PLAYORDER=
